Coordinates
version=1
nRows=7
nColumns=42
inDegrees=yes

Units are S.I. units (second, meters, Newtons, ...)
If the header above contains a line with 'inDegrees', this indicates whether rotational values are in degrees (yes) or radians (no).

endheader
time	pelvis_tilt	pelvis_list	pelvis_rotation	pelvis_tx	pelvis_ty	pelvis_tz	hip_flexion_r	hip_adduction_r	hip_rotation_r	knee_angle_r	knee_adduction_r	knee_angle_r_beta	ankle_angle_r	subtalar_angle_r	mtp_angle_r	hip_flexion_l	hip_adduction_l	hip_rotation_l	knee_angle_l	knee_adduction_l	knee_angle_l_beta	ankle_angle_l	subtalar_angle_l	mtp_angle_l	lumbar_extension	lumbar_bending	lumbar_rotation	arm_flex_r	arm_add_r	arm_rot_r	elbow_flex_r	pro_sup_r	wrist_flex_r	wrist_dev_r	arm_flex_l	arm_add_l	arm_rot_l	elbow_flex_l	pro_sup_l	wrist_flex_l	wrist_dev_l
      0.30000000	     17.89886752	      3.78766476	      5.50618026	     -1.55567864	      0.89468086	     -0.01853372	      4.62333200	     -0.87208079	    -14.05992611	     29.80618819	     -2.97098292	      0.52021612	     11.35294119	     -2.09252674	     -9.59399033	    -24.17655569	     -2.70200567	      0.56800670	     45.80533085	      4.14800168	      0.79945384	      1.16023746	     -2.60336181	     -9.59399033	    -39.23860080	     -0.84391574	     -3.31482437	      1.81374195	     -5.79656864	    -35.20519794	     27.79179012	     90.00000001	      0.00000000	      0.00000000	      7.95366897	     -8.06765939	    -31.23875717	     37.85365472	     90.00000001	      0.00000000	      0.00000000
      0.31000000	     17.98771819	      3.62514078	      5.41257502	     -1.54724868	      0.89567041	     -0.01748849	      3.84541599	     -0.52321378	    -14.44558118	     29.58967043	     -3.11947584	      0.51643717	     12.04235560	     -1.54403338	     -9.54432770	    -22.91018911	     -2.80710559	      1.12425939	     48.42505701	      4.27783694	      0.84517669	      0.83445697	     -3.88561643	     -9.54432770	    -39.33314398	     -0.67471460	     -3.33479191	      2.15526629	     -5.88584454	    -34.72821323	     28.26343861	     90.00000001	      0.00000000	      0.00000000	      7.70963707	     -7.99555435	    -31.28686089	     37.69675767	     90.00000001	      0.00000000	      0.00000000
      0.32000000	     17.99774643	      3.63529076	      5.30337330	     -1.53914794	      0.89656216	     -0.01657264	      3.32546724	     -0.41116970	    -15.32608611	     29.65304095	     -3.57645975	      0.51754320	     12.94482594	     -0.03144534	     -9.39052256	    -21.55516094	     -2.69313583	      2.42300811	     50.85345294	      5.02526846	      0.88756019	     -0.12138350	     -7.20497836	     -9.39052256	    -39.40046743	     -0.69340377	     -3.40467948	      2.39712333	     -6.05258204	    -33.31431888	     28.78234081	     90.00000001	      0.00000000	      0.00000000	      7.57496446	     -7.86184298	    -31.46294681	     37.51245768	     90.00000001	      0.00000000	      0.00000000
      0.33000000	     18.09706485	      3.52631837	      5.26164769	     -1.53111482	      0.89757175	     -0.01569928	      2.48411144	     -0.14747640	    -15.45020864	     29.34882138	     -3.53762403	      0.51223356	     13.59609371	      0.30477310	     -9.34932789	    -20.17019454	     -2.69108456	      2.65885296	     53.30526082	      4.86517549	      0.93035231	      0.23364173	     -8.39841522	     -9.34932789	    -39.55083870	     -0.56456627	     -3.42521309	      2.81230653	     -6.11835993	    -32.91561107	     29.23844551	     90.00000001	      0.00000000	      0.00000000	      7.42731057	     -7.76499064	    -31.39385083	     37.38454132	     90.00000001	      0.00000000	      0.00000000
      0.34000000	     17.98282309	      3.38055724	      5.20445197	     -1.52341793	      0.89813378	     -0.01478321	      2.06803001	      0.18212799	    -15.73499023	     29.29756720	     -3.77894195	      0.51133901	     14.14107742	      0.81286473	     -9.26435032	    -18.46673708	     -2.77756784	      3.29661849	     55.72203625	      5.27198945	      0.97253300	      0.23025632	    -10.66079104	     -9.26435032	    -39.50904885	     -0.43911856	     -3.37509858	      3.12498778	     -6.30080306	    -31.79575228	     29.72056975	     90.00000001	      0.00000000	      0.00000000	      7.33868737	     -7.63648177	    -31.34602652	     37.19219868	     90.00000001	      0.00000000	      0.00000000
      0.35000000	     18.13518156	      3.40404459	      5.14330002	     -1.51577744	      0.89928716	     -0.01408989	      1.16632922	      0.25057319	    -15.68352459	     29.00106782	     -3.60696611	      0.50616412	     14.67992542	      0.98039958	     -9.23500527	    -17.11659626	     -2.55456171	      3.24874055	     57.73866398	      4.84500706	      1.00772979	      1.03086122	    -11.73551047	     -9.23500527	    -39.77118844	     -0.43739690	     -3.40431389	      3.61902367	     -6.37898858	    -31.38305759	     30.14752198	     90.00000001	      0.00000000	      0.00000000	      7.30340155	     -7.52054646	    -31.24395004	     37.08821147	     90.00000001	      0.00000000	      0.00000000
      0.36000000	     18.03350618	      3.22651461	      5.11481410	     -1.50840835	      0.89982794	     -0.01317167	      0.66096415	      0.60353854	    -15.56278073	     28.79770892	     -3.56572777	      0.50261484	     15.24335009	      1.10316848	     -9.19358556	    -15.31780341	     -2.66442172	      3.20702625	     59.86810369	      4.66183231	      1.04489553	      1.65711313	    -13.16871150	     -9.19358556	    -39.76825669	     -0.29254910	     -3.31706860	      4.04987757	     -6.51133310	    -30.51973349	     30.62405287	     90.00000001	      0.00000000	      0.00000000	      7.28233396	     -7.41773792	    -31.09933704	     36.93550854	     90.00000001	      0.00000000	      0.00000000
